<svg width="32" height="32" viewBox="0 0 32 32" fill="none" xmlns="http://www.w3.org/2000/svg">
<path d="M28.0003 5.32245V10.6558H22.667" stroke="#12266E" stroke-width="2" stroke-linecap="round" stroke-linejoin="round"/>
<path d="M4 15.9891C4.00211 13.6735 4.67413 11.408 5.93501 9.46579C7.19588 7.5236 8.99175 5.98769 11.106 5.04332C13.2203 4.09896 15.5626 3.78647 17.8505 4.14354C20.1384 4.50062 22.2741 5.51202 24 7.05574L28 10.6557" stroke="#12266E" stroke-width="2" stroke-linecap="round" stroke-linejoin="round"/>
<path d="M4 26.6558L4 21.3224H9.33333" stroke="#12266E" stroke-width="2" stroke-linecap="round" stroke-linejoin="round"/>
<path d="M28 16C27.9979 18.3156 27.3259 20.5811 26.065 22.5233C24.8041 24.4655 23.0082 26.0014 20.894 26.9457C18.7797 27.8901 16.4374 28.2026 14.1495 27.8455C11.8616 27.4884 9.72593 26.4771 8 24.9333L4 21.3333" stroke="#12266E" stroke-width="2" stroke-linecap="round" stroke-linejoin="round"/>
<path d="M16 10.6558V15.9891L18.6667 18.6558" stroke="#12266E" stroke-width="2" stroke-linecap="round" stroke-linejoin="round"/>
</svg>
