<svg width="32" height="32" viewBox="0 0 32 32" fill="none" xmlns="http://www.w3.org/2000/svg">
<path d="M21.333 29.3333H23.9997C24.7069 29.3333 25.3852 29.0523 25.8853 28.5522C26.3854 28.0521 26.6663 27.3739 26.6663 26.6666V9.99996L19.333 2.66663H7.99967C7.29243 2.66663 6.61415 2.94758 6.11406 3.44767C5.61396 3.94777 5.33301 4.62605 5.33301 5.33329V9.33329" stroke="#12266E" stroke-width="2" stroke-linecap="round" stroke-linejoin="round"/>
<path d="M18.667 2.66663V10.6666H26.667" stroke="#12266E" stroke-width="2" stroke-linecap="round" stroke-linejoin="round"/>
<path d="M13.9781 27.8889L9.17086 23.0817L6.34309 25.9095L2.66699 22.2334" stroke="#12266E" stroke-width="2" stroke-linecap="round" stroke-linejoin="round"/>
<path d="M10.585 27.8889H13.9783V24.4956" stroke="#12266E" stroke-width="2" stroke-linecap="round" stroke-linejoin="round"/>
<path d="M14.3941 13.3334L9.58688 18.1406L6.75911 15.3128L3.08301 18.9889" stroke="#12266E" stroke-width="2" stroke-linecap="round" stroke-linejoin="round"/>
<path d="M11.001 13.3334H14.3943V16.7267" stroke="#12266E" stroke-width="2" stroke-linecap="round" stroke-linejoin="round"/>
</svg>
