<svg width="48" height="48" viewBox="0 0 48 48" fill="none" xmlns="http://www.w3.org/2000/svg">
<path d="M40 24V16H12C10.9391 16 9.92172 15.5786 9.17157 14.8284C8.42143 14.0783 8 13.0609 8 12C8 9.8 9.8 8 12 8H36V16" stroke="#101115" stroke-width="3" stroke-linecap="round" stroke-linejoin="round"/>
<path d="M8 12V36C8 38.2 9.8 40 12 40H40V32" stroke="#101115" stroke-width="3" stroke-linecap="round" stroke-linejoin="round"/>
<path d="M36 24C34.9391 24 33.9217 24.4214 33.1716 25.1716C32.4214 25.9217 32 26.9391 32 28C32 30.2 33.8 32 36 32H44V24H36Z" stroke="#101115" stroke-width="3" stroke-linecap="round" stroke-linejoin="round"/>
</svg>
