<svg width="24" height="24" viewBox="0 0 24 24" fill="none" xmlns="http://www.w3.org/2000/svg">
<path d="M22.0571 6.94499C21.9376 6.50102 21.7036 6.09623 21.3785 5.77112C21.0534 5.44601 20.6486 5.212 20.2046 5.09249C18.5696 4.64999 11.9996 4.64999 11.9996 4.64999C11.9996 4.64999 5.42959 4.64999 3.79459 5.09249C3.35062 5.212 2.94582 5.44601 2.62071 5.77112C2.29561 6.09623 2.06159 6.50102 1.94209 6.94499C1.6368 8.61244 1.48865 10.3049 1.49959 12C1.48865 13.6951 1.6368 15.3875 1.94209 17.055C2.06159 17.499 2.29561 17.9038 2.62071 18.2289C2.94582 18.554 3.35062 18.788 3.79459 18.9075C5.42959 19.35 11.9996 19.35 11.9996 19.35C11.9996 19.35 18.5696 19.35 20.2046 18.9075C20.6486 18.788 21.0534 18.554 21.3785 18.2289C21.7036 17.9038 21.9376 17.499 22.0571 17.055C22.3624 15.3875 22.5105 13.6951 22.4996 12C22.5105 10.3049 22.3624 8.61244 22.0571 6.94499ZM9.89959 15.15V8.84999L15.3521 12L9.89959 15.15Z" fill="#EA3323"/>
</svg>
