<svg width="48" height="48" viewBox="0 0 48 48" fill="none" xmlns="http://www.w3.org/2000/svg">
<path d="M30 4H18C16.8954 4 16 4.89543 16 6V10C16 11.1046 16.8954 12 18 12H30C31.1046 12 32 11.1046 32 10V6C32 4.89543 31.1046 4 30 4Z" stroke="#101115" stroke-width="3" stroke-linecap="round" stroke-linejoin="round"/>
<path d="M16 8H12C10.9391 8 9.92172 8.42143 9.17157 9.17157C8.42143 9.92172 8 10.9391 8 12V40C8 41.0609 8.42143 42.0783 9.17157 42.8284C9.92172 43.5786 10.9391 44 12 44H36C37.0609 44 38.0783 43.5786 38.8284 42.8284C39.5786 42.0783 40 41.0609 40 40V39" stroke="#101115" stroke-width="3" stroke-linecap="round" stroke-linejoin="round"/>
<path d="M32 8H36C36.7015 8.00072 37.3904 8.18589 37.9977 8.53692C38.605 8.88796 39.1093 9.39253 39.46 10" stroke="#101115" stroke-width="3" stroke-linecap="round" stroke-linejoin="round"/>
<path d="M36.84 19.22C37.23 18.8299 37.6931 18.5205 38.2026 18.3095C38.7122 18.0984 39.2584 17.9897 39.81 17.9897C40.3616 17.9897 40.9078 18.0984 41.4174 18.3095C41.9269 18.5205 42.39 18.8299 42.78 19.22C43.17 19.61 43.4794 20.073 43.6905 20.5826C43.9016 21.0922 44.0102 21.6384 44.0102 22.19C44.0102 22.7415 43.9016 23.2877 43.6905 23.7973C43.4794 24.3069 43.17 24.7699 42.78 25.16L33.9 34L26 36L27.98 28.1L36.84 19.22Z" stroke="#101115" stroke-width="3" stroke-linecap="round" stroke-linejoin="round"/>
<path d="M16 36H18" stroke="#101115" stroke-width="3" stroke-linecap="round" stroke-linejoin="round"/>
</svg>
