<svg width="32" height="32" viewBox="0 0 32 32" fill="none" xmlns="http://www.w3.org/2000/svg">
<path d="M20.0003 2.66669H12.0003C11.2639 2.66669 10.667 3.26364 10.667 4.00002V6.66669C10.667 7.40307 11.2639 8.00002 12.0003 8.00002H20.0003C20.7367 8.00002 21.3337 7.40307 21.3337 6.66669V4.00002C21.3337 3.26364 20.7367 2.66669 20.0003 2.66669Z" stroke="#12266E" stroke-width="2" stroke-linecap="round" stroke-linejoin="round"/>
<path d="M21.333 5.33331H23.9997C24.7069 5.33331 25.3852 5.61426 25.8853 6.11436C26.3854 6.61446 26.6663 7.29274 26.6663 7.99998V26.6666C26.6663 27.3739 26.3854 28.0522 25.8853 28.5523C25.3852 29.0524 24.7069 29.3333 23.9997 29.3333H7.99967C7.29243 29.3333 6.61415 29.0524 6.11406 28.5523C5.61396 28.0522 5.33301 27.3739 5.33301 26.6666V7.99998C5.33301 7.29274 5.61396 6.61446 6.11406 6.11436C6.61415 5.61426 7.29243 5.33331 7.99967 5.33331H10.6663" stroke="#12266E" stroke-width="2" stroke-linecap="round" stroke-linejoin="round"/>
<path d="M12 18.6667L14.6667 21.3333L20 16" stroke="#12266E" stroke-width="2" stroke-linecap="round" stroke-linejoin="round"/>
</svg>
