<svg width="32" height="32" viewBox="0 0 32 32" fill="none" xmlns="http://www.w3.org/2000/svg">
<path d="M5.33301 29.3333H23.9997C24.7069 29.3333 25.3852 29.0523 25.8853 28.5522C26.3854 28.0521 26.6663 27.3739 26.6663 26.6666V9.99996L19.333 2.66663H7.99967C7.29243 2.66663 6.61415 2.94758 6.11406 3.44767C5.61396 3.94777 5.33301 4.62605 5.33301 5.33329V9.33329" stroke="#12266E" stroke-width="2" stroke-linecap="round" stroke-linejoin="round"/>
<path d="M18.667 2.66663V10.6666H26.667" stroke="#12266E" stroke-width="2" stroke-linecap="round" stroke-linejoin="round"/>
<path d="M6.66699 22.6666C7.19228 22.6666 7.71242 22.5632 8.19773 22.3621C8.68303 22.1611 9.12399 21.8665 9.49542 21.4951C9.86685 21.1236 10.1615 20.6827 10.3625 20.1974C10.5635 19.7121 10.667 19.1919 10.667 18.6666C10.667 18.1413 10.5635 17.6212 10.3625 17.1359C10.1615 16.6506 9.86685 16.2096 9.49542 15.8382C9.12399 15.4668 8.68303 15.1721 8.19773 14.9711C7.71242 14.7701 7.19228 14.6666 6.66699 14.6666C5.60613 14.6666 4.58871 15.0881 3.83857 15.8382C3.08842 16.5883 2.66699 17.6058 2.66699 18.6666C2.66699 19.7275 3.08842 20.7449 3.83857 21.4951C4.58871 22.2452 5.60613 22.6666 6.66699 22.6666V22.6666Z" stroke="#12266E" stroke-width="2" stroke-linecap="round" stroke-linejoin="round"/>
<path d="M12 24L10 22" stroke="#12266E" stroke-width="2" stroke-linecap="round" stroke-linejoin="round"/>
</svg>
