<svg width="32" height="32" viewBox="0 0 32 32" fill="none" xmlns="http://www.w3.org/2000/svg">
<path d="M24 28C26.2091 28 28 26.2091 28 24C28 21.7909 26.2091 20 24 20C21.7909 20 20 21.7909 20 24C20 26.2091 21.7909 28 24 28Z" stroke="#12266E" stroke-width="2" stroke-linecap="round" stroke-linejoin="round"/>
<path d="M8 12C10.2091 12 12 10.2091 12 8C12 5.79086 10.2091 4 8 4C5.79086 4 4 5.79086 4 8C4 10.2091 5.79086 12 8 12Z" stroke="#12266E" stroke-width="2" stroke-linecap="round" stroke-linejoin="round"/>
<path d="M17.333 8H21.333C22.0403 8 22.7185 8.28095 23.2186 8.78105C23.7187 9.28115 23.9997 9.95942 23.9997 10.6667V20" stroke="#12266E" stroke-width="2" stroke-linecap="round" stroke-linejoin="round"/>
<path d="M14.6667 24H10.6667C9.95942 24 9.28115 23.719 8.78105 23.219C8.28095 22.7189 8 22.0406 8 21.3333V12" stroke="#12266E" stroke-width="2" stroke-linecap="round" stroke-linejoin="round"/>
</svg>
